<svg xmlns="http://www.w3.org/2000/svg" width="32" height="32" viewBox="0 0 32 32">
  <defs>
    <linearGradient id="g" x1="0%" y1="0%" x2="100%" y2="100%">
      <stop offset="0%" stop-color="#0ea5e9"/>
      <stop offset="100%" stop-color="#14b8a6"/>
    </linearGradient>
  </defs>
  <rect width="32" height="32" rx="8" fill="url(#g)"/>
  <path d="M16 6v3M10 6v3M10 7.5H8.5A1.5 1.5 0 0 0 7 9v4.5a4.5 4.5 0 0 0 9 0V9A1.5 1.5 0 0 0 14.5 7.5H13M16 18a4.5 4.5 0 0 0 9 0v-2.25M25 12.75a1.5 1.5 0 1 1-3 0 1.5 1.5 0 0 1 3 0z" fill="none" stroke="#fff" stroke-width="1.8" stroke-linecap="round" stroke-linejoin="round"/>
</svg>
